# xmcd
#
# Track frame offsets: 
#        150
#        9882
#        39980
#        54257
#        72282
#        85580
#        98005
#        118445
#        134530
#        150872
#        172165
#        185810
#        200630
#        220525
#
# Disc length: 3048 seconds
#
# Revision: 1
# Processed by: cddbd v1.5.2PL0 Copyright (c) Steve Scherf et al.
# Submitted via: ExactAudioCopy v0.99pb5
#
DISCID=b80be60e
DTITLE=Rampage - Scouts Honor... By Way of Blood
DYEAR=1997
DGENRE=Rap
TTITLE0=Intro
TTITLE1=Flipmode Iz da Squad (feat. Busta Rhymes, Lord Have Mercy, Ser
TTITLE1=ious and Spliff Star)
TTITLE2=Da Night B4 My Shit Drop
TTITLE3=Talk of the Town
TTITLE4=Get the Money and Dip (feat. Busta Rhymes)
TTITLE5=The Set Up
TTITLE6=Wild for da Night (feat. Busta Rhymes)
TTITLE7=Flipmode Enemy #1 (feat. Serious)
TTITLE8=Take It to the Streets (feat. Billy Lawrence)
TTITLE9=Conquer da World (feat. Meka)
TTITLE10=Hall of Fame
TTITLE11=Niggaz Iz Bad (feat. Serious)
TTITLE12=We Getz Down (Remix)
TTITLE13=Rampage Outro
EXTD=
EXTT0=
EXTT1=
EXTT2=
EXTT3=
EXTT4=
EXTT5=
EXTT6=
EXTT7=
EXTT8=
EXTT9=
EXTT10=
EXTT11=
EXTT12=
EXTT13=
PLAYORDER=
